<mxfile host="app.diagrams.net" agent="Mozilla/5.0 (Windows NT 10.0; Win64; x64) AppleWebKit/537.36 (KHTML, like Gecko) Chrome/133.0.0.0 Safari/537.36" version="26.0.15">
  <diagram name="Page-1" id="M1E9GjK7BhEOKNNEFUAl">
    <mxGraphModel dx="794" dy="493" grid="1" gridSize="10" guides="1" tooltips="1" connect="1" arrows="1" fold="1" page="1" pageScale="1" pageWidth="850" pageHeight="1100" math="0" shadow="0">
      <root>
        <mxCell id="0" />
        <mxCell id="1" parent="0" />
        <mxCell id="h__n-TFuCdHFED_XAWrh-1" value="" style="shape=or;whiteSpace=wrap;html=1;" parent="1" vertex="1">
          <mxGeometry x="400" y="60" width="60" height="80" as="geometry" />
        </mxCell>
        <mxCell id="h__n-TFuCdHFED_XAWrh-2" value="" style="shape=or;whiteSpace=wrap;html=1;" parent="1" vertex="1">
          <mxGeometry x="400" y="400" width="60" height="80" as="geometry" />
        </mxCell>
        <mxCell id="h__n-TFuCdHFED_XAWrh-3" value="" style="shape=or;whiteSpace=wrap;html=1;" parent="1" vertex="1">
          <mxGeometry x="400" y="290" width="60" height="80" as="geometry" />
        </mxCell>
        <mxCell id="h__n-TFuCdHFED_XAWrh-4" value="" style="shape=or;whiteSpace=wrap;html=1;" parent="1" vertex="1">
          <mxGeometry x="400" y="170" width="60" height="80" as="geometry" />
        </mxCell>
        <mxCell id="h__n-TFuCdHFED_XAWrh-5" value="" style="shape=xor;whiteSpace=wrap;html=1;" parent="1" vertex="1">
          <mxGeometry x="580" y="150" width="60" height="80" as="geometry" />
        </mxCell>
        <mxCell id="c_KmZCJVx6QwYVXVt4nT-38" style="edgeStyle=orthogonalEdgeStyle;rounded=0;orthogonalLoop=1;jettySize=auto;html=1;exitX=1;exitY=0.5;exitDx=0;exitDy=0;exitPerimeter=0;" edge="1" parent="1" source="h__n-TFuCdHFED_XAWrh-6">
          <mxGeometry relative="1" as="geometry">
            <mxPoint x="800" y="270" as="targetPoint" />
          </mxGeometry>
        </mxCell>
        <mxCell id="h__n-TFuCdHFED_XAWrh-6" value="" style="shape=xor;whiteSpace=wrap;html=1;" parent="1" vertex="1">
          <mxGeometry x="720" y="230" width="60" height="80" as="geometry" />
        </mxCell>
        <mxCell id="h__n-TFuCdHFED_XAWrh-7" value="" style="shape=xor;whiteSpace=wrap;html=1;" parent="1" vertex="1">
          <mxGeometry x="580" y="310" width="60" height="80" as="geometry" />
        </mxCell>
        <mxCell id="h__n-TFuCdHFED_XAWrh-15" value="a[0]" style="text;html=1;align=center;verticalAlign=middle;whiteSpace=wrap;rounded=0;" parent="1" vertex="1">
          <mxGeometry x="280" y="410" width="60" height="30" as="geometry" />
        </mxCell>
        <mxCell id="h__n-TFuCdHFED_XAWrh-16" value="a[2]" style="text;html=1;align=center;verticalAlign=middle;whiteSpace=wrap;rounded=0;" parent="1" vertex="1">
          <mxGeometry x="280" y="305" width="60" height="30" as="geometry" />
        </mxCell>
        <mxCell id="h__n-TFuCdHFED_XAWrh-17" value="a[0]" style="text;html=1;align=center;verticalAlign=middle;whiteSpace=wrap;rounded=0;" parent="1" vertex="1">
          <mxGeometry x="281" y="335" width="60" height="30" as="geometry" />
        </mxCell>
        <mxCell id="PrenHE6rkho9lX422s2h-1" value="" style="ellipse;whiteSpace=wrap;html=1;aspect=fixed;" parent="1" vertex="1">
          <mxGeometry x="390" y="120" width="10" height="10" as="geometry" />
        </mxCell>
        <mxCell id="c_KmZCJVx6QwYVXVt4nT-1" value="" style="endArrow=classic;html=1;rounded=0;entryX=0;entryY=0.5;entryDx=0;entryDy=0;entryPerimeter=0;" edge="1" parent="1" target="h__n-TFuCdHFED_XAWrh-1">
          <mxGeometry width="50" height="50" relative="1" as="geometry">
            <mxPoint x="320" y="100" as="sourcePoint" />
            <mxPoint x="330" y="99.5" as="targetPoint" />
          </mxGeometry>
        </mxCell>
        <mxCell id="c_KmZCJVx6QwYVXVt4nT-2" value="" style="endArrow=classic;html=1;rounded=0;entryX=0;entryY=0.25;entryDx=0;entryDy=0;entryPerimeter=0;" edge="1" parent="1" target="h__n-TFuCdHFED_XAWrh-4">
          <mxGeometry width="50" height="50" relative="1" as="geometry">
            <mxPoint x="320" y="190" as="sourcePoint" />
            <mxPoint x="180" y="189.5" as="targetPoint" />
          </mxGeometry>
        </mxCell>
        <mxCell id="c_KmZCJVx6QwYVXVt4nT-3" value="" style="endArrow=classic;html=1;rounded=0;entryX=0.025;entryY=0.113;entryDx=0;entryDy=0;entryPerimeter=0;" edge="1" parent="1">
          <mxGeometry width="50" height="50" relative="1" as="geometry">
            <mxPoint x="320" y="80" as="sourcePoint" />
            <mxPoint x="400" y="79.99999999999997" as="targetPoint" />
          </mxGeometry>
        </mxCell>
        <mxCell id="c_KmZCJVx6QwYVXVt4nT-4" value="" style="endArrow=classic;html=1;rounded=0;entryX=0;entryY=0.5;entryDx=0;entryDy=0;" edge="1" parent="1" target="PrenHE6rkho9lX422s2h-1">
          <mxGeometry width="50" height="50" relative="1" as="geometry">
            <mxPoint x="320" y="125" as="sourcePoint" />
            <mxPoint x="330" y="124.5" as="targetPoint" />
          </mxGeometry>
        </mxCell>
        <mxCell id="c_KmZCJVx6QwYVXVt4nT-5" value="" style="endArrow=classic;html=1;rounded=0;" edge="1" parent="1">
          <mxGeometry width="50" height="50" relative="1" as="geometry">
            <mxPoint x="320" y="350" as="sourcePoint" />
            <mxPoint x="390" y="349.5" as="targetPoint" />
          </mxGeometry>
        </mxCell>
        <mxCell id="c_KmZCJVx6QwYVXVt4nT-6" value="" style="endArrow=classic;html=1;rounded=0;" edge="1" parent="1">
          <mxGeometry width="50" height="50" relative="1" as="geometry">
            <mxPoint x="320" y="319.5" as="sourcePoint" />
            <mxPoint x="400" y="319.5" as="targetPoint" />
          </mxGeometry>
        </mxCell>
        <mxCell id="c_KmZCJVx6QwYVXVt4nT-7" value="" style="endArrow=classic;html=1;rounded=0;" edge="1" parent="1">
          <mxGeometry width="50" height="50" relative="1" as="geometry">
            <mxPoint x="320" y="300" as="sourcePoint" />
            <mxPoint x="400" y="300" as="targetPoint" />
          </mxGeometry>
        </mxCell>
        <mxCell id="c_KmZCJVx6QwYVXVt4nT-10" value="" style="endArrow=classic;html=1;rounded=0;" edge="1" parent="1">
          <mxGeometry width="50" height="50" relative="1" as="geometry">
            <mxPoint x="320" y="209.5" as="sourcePoint" />
            <mxPoint x="400" y="209.5" as="targetPoint" />
          </mxGeometry>
        </mxCell>
        <mxCell id="c_KmZCJVx6QwYVXVt4nT-11" value="" style="endArrow=classic;html=1;rounded=0;" edge="1" parent="1">
          <mxGeometry width="50" height="50" relative="1" as="geometry">
            <mxPoint x="320" y="230" as="sourcePoint" />
            <mxPoint x="400" y="230" as="targetPoint" />
          </mxGeometry>
        </mxCell>
        <mxCell id="c_KmZCJVx6QwYVXVt4nT-12" value="" style="ellipse;whiteSpace=wrap;html=1;aspect=fixed;" vertex="1" parent="1">
          <mxGeometry x="390" y="345" width="10" height="10" as="geometry" />
        </mxCell>
        <mxCell id="c_KmZCJVx6QwYVXVt4nT-13" value="" style="ellipse;whiteSpace=wrap;html=1;aspect=fixed;" vertex="1" parent="1">
          <mxGeometry x="390" y="460" width="10" height="10" as="geometry" />
        </mxCell>
        <mxCell id="c_KmZCJVx6QwYVXVt4nT-14" value="" style="ellipse;whiteSpace=wrap;html=1;aspect=fixed;" vertex="1" parent="1">
          <mxGeometry x="390" y="440" width="10" height="10" as="geometry" />
        </mxCell>
        <mxCell id="c_KmZCJVx6QwYVXVt4nT-21" value="" style="endArrow=classic;html=1;rounded=0;" edge="1" parent="1">
          <mxGeometry width="50" height="50" relative="1" as="geometry">
            <mxPoint x="320" y="465" as="sourcePoint" />
            <mxPoint x="390" y="464.5" as="targetPoint" />
          </mxGeometry>
        </mxCell>
        <mxCell id="c_KmZCJVx6QwYVXVt4nT-22" value="" style="endArrow=classic;html=1;rounded=0;" edge="1" parent="1">
          <mxGeometry width="50" height="50" relative="1" as="geometry">
            <mxPoint x="320" y="445" as="sourcePoint" />
            <mxPoint x="390" y="444.5" as="targetPoint" />
          </mxGeometry>
        </mxCell>
        <mxCell id="c_KmZCJVx6QwYVXVt4nT-23" value="" style="endArrow=classic;html=1;rounded=0;" edge="1" parent="1">
          <mxGeometry width="50" height="50" relative="1" as="geometry">
            <mxPoint x="320" y="424.5" as="sourcePoint" />
            <mxPoint x="400" y="424.5" as="targetPoint" />
          </mxGeometry>
        </mxCell>
        <mxCell id="c_KmZCJVx6QwYVXVt4nT-26" value="a[2]" style="text;html=1;align=center;verticalAlign=middle;whiteSpace=wrap;rounded=0;" vertex="1" parent="1">
          <mxGeometry x="280" y="60" width="60" height="30" as="geometry" />
        </mxCell>
        <mxCell id="c_KmZCJVx6QwYVXVt4nT-27" value="a[3&lt;span style=&quot;background-color: transparent; color: light-dark(rgb(0, 0, 0), rgb(255, 255, 255));&quot;&gt;]&lt;/span&gt;" style="text;html=1;align=center;verticalAlign=middle;whiteSpace=wrap;rounded=0;" vertex="1" parent="1">
          <mxGeometry x="280" y="430" width="60" height="30" as="geometry" />
        </mxCell>
        <mxCell id="c_KmZCJVx6QwYVXVt4nT-31" value="" style="endArrow=none;html=1;rounded=0;" edge="1" parent="1">
          <mxGeometry width="50" height="50" relative="1" as="geometry">
            <mxPoint x="460" y="99.5" as="sourcePoint" />
            <mxPoint x="540" y="99.5" as="targetPoint" />
          </mxGeometry>
        </mxCell>
        <mxCell id="c_KmZCJVx6QwYVXVt4nT-32" value="" style="endArrow=none;html=1;rounded=0;" edge="1" parent="1">
          <mxGeometry width="50" height="50" relative="1" as="geometry">
            <mxPoint x="540" y="180" as="sourcePoint" />
            <mxPoint x="540" y="100" as="targetPoint" />
          </mxGeometry>
        </mxCell>
        <mxCell id="c_KmZCJVx6QwYVXVt4nT-33" value="" style="endArrow=classic;html=1;rounded=0;entryX=0.242;entryY=0.388;entryDx=0;entryDy=0;entryPerimeter=0;" edge="1" parent="1" target="h__n-TFuCdHFED_XAWrh-5">
          <mxGeometry width="50" height="50" relative="1" as="geometry">
            <mxPoint x="540" y="180" as="sourcePoint" />
            <mxPoint x="580" y="180" as="targetPoint" />
          </mxGeometry>
        </mxCell>
        <mxCell id="c_KmZCJVx6QwYVXVt4nT-34" style="edgeStyle=orthogonalEdgeStyle;rounded=0;orthogonalLoop=1;jettySize=auto;html=1;exitX=1;exitY=0.5;exitDx=0;exitDy=0;exitPerimeter=0;entryX=0.175;entryY=0.75;entryDx=0;entryDy=0;entryPerimeter=0;" edge="1" parent="1" source="h__n-TFuCdHFED_XAWrh-4" target="h__n-TFuCdHFED_XAWrh-5">
          <mxGeometry relative="1" as="geometry" />
        </mxCell>
        <mxCell id="c_KmZCJVx6QwYVXVt4nT-36" style="edgeStyle=orthogonalEdgeStyle;rounded=0;orthogonalLoop=1;jettySize=auto;html=1;exitX=1;exitY=0.5;exitDx=0;exitDy=0;exitPerimeter=0;entryX=0.175;entryY=0.25;entryDx=0;entryDy=0;entryPerimeter=0;" edge="1" parent="1" source="h__n-TFuCdHFED_XAWrh-5" target="h__n-TFuCdHFED_XAWrh-6">
          <mxGeometry relative="1" as="geometry" />
        </mxCell>
        <mxCell id="c_KmZCJVx6QwYVXVt4nT-37" style="edgeStyle=orthogonalEdgeStyle;rounded=0;orthogonalLoop=1;jettySize=auto;html=1;exitX=1;exitY=0.5;exitDx=0;exitDy=0;exitPerimeter=0;entryX=0.175;entryY=0.75;entryDx=0;entryDy=0;entryPerimeter=0;" edge="1" parent="1" source="h__n-TFuCdHFED_XAWrh-7" target="h__n-TFuCdHFED_XAWrh-6">
          <mxGeometry relative="1" as="geometry" />
        </mxCell>
        <mxCell id="c_KmZCJVx6QwYVXVt4nT-39" value="B" style="text;html=1;align=center;verticalAlign=middle;whiteSpace=wrap;rounded=0;" vertex="1" parent="1">
          <mxGeometry x="780" y="255" width="60" height="30" as="geometry" />
        </mxCell>
        <mxCell id="c_KmZCJVx6QwYVXVt4nT-41" style="edgeStyle=orthogonalEdgeStyle;rounded=0;orthogonalLoop=1;jettySize=auto;html=1;exitX=1;exitY=0.5;exitDx=0;exitDy=0;exitPerimeter=0;entryX=0.175;entryY=0.25;entryDx=0;entryDy=0;entryPerimeter=0;" edge="1" parent="1" source="h__n-TFuCdHFED_XAWrh-3" target="h__n-TFuCdHFED_XAWrh-7">
          <mxGeometry relative="1" as="geometry" />
        </mxCell>
        <mxCell id="c_KmZCJVx6QwYVXVt4nT-43" value="" style="endArrow=none;html=1;rounded=0;" edge="1" parent="1">
          <mxGeometry width="50" height="50" relative="1" as="geometry">
            <mxPoint x="460" y="439" as="sourcePoint" />
            <mxPoint x="540" y="439" as="targetPoint" />
          </mxGeometry>
        </mxCell>
        <mxCell id="c_KmZCJVx6QwYVXVt4nT-44" value="" style="endArrow=none;html=1;rounded=0;" edge="1" parent="1">
          <mxGeometry width="50" height="50" relative="1" as="geometry">
            <mxPoint x="540" y="440" as="sourcePoint" />
            <mxPoint x="540" y="370" as="targetPoint" />
          </mxGeometry>
        </mxCell>
        <mxCell id="c_KmZCJVx6QwYVXVt4nT-45" value="" style="endArrow=classic;html=1;rounded=0;" edge="1" parent="1">
          <mxGeometry width="50" height="50" relative="1" as="geometry">
            <mxPoint x="540" y="370" as="sourcePoint" />
            <mxPoint x="590" y="370" as="targetPoint" />
          </mxGeometry>
        </mxCell>
        <mxCell id="c_KmZCJVx6QwYVXVt4nT-46" value="a[3]" style="text;html=1;align=center;verticalAlign=middle;whiteSpace=wrap;rounded=0;" vertex="1" parent="1">
          <mxGeometry x="280" y="285" width="60" height="30" as="geometry" />
        </mxCell>
        <mxCell id="c_KmZCJVx6QwYVXVt4nT-47" value="a[3]" style="text;html=1;align=center;verticalAlign=middle;whiteSpace=wrap;rounded=0;" vertex="1" parent="1">
          <mxGeometry x="280" y="175" width="60" height="30" as="geometry" />
        </mxCell>
        <mxCell id="c_KmZCJVx6QwYVXVt4nT-49" value="a[1]" style="text;html=1;align=center;verticalAlign=middle;whiteSpace=wrap;rounded=0;" vertex="1" parent="1">
          <mxGeometry x="280" y="450" width="60" height="30" as="geometry" />
        </mxCell>
        <mxCell id="c_KmZCJVx6QwYVXVt4nT-50" value="" style="endArrow=classic;html=1;rounded=0;" edge="1" parent="1">
          <mxGeometry width="50" height="50" relative="1" as="geometry">
            <mxPoint x="320" y="410" as="sourcePoint" />
            <mxPoint x="400" y="410" as="targetPoint" />
          </mxGeometry>
        </mxCell>
        <mxCell id="c_KmZCJVx6QwYVXVt4nT-55" value="a[2]" style="text;html=1;align=center;verticalAlign=middle;whiteSpace=wrap;rounded=0;" vertex="1" parent="1">
          <mxGeometry x="280" y="394" width="60" height="30" as="geometry" />
        </mxCell>
        <mxCell id="c_KmZCJVx6QwYVXVt4nT-56" value="a[0]" style="text;html=1;align=center;verticalAlign=middle;whiteSpace=wrap;rounded=0;" vertex="1" parent="1">
          <mxGeometry x="280" y="110" width="60" height="30" as="geometry" />
        </mxCell>
        <mxCell id="c_KmZCJVx6QwYVXVt4nT-57" value="a[1]" style="text;html=1;align=center;verticalAlign=middle;whiteSpace=wrap;rounded=0;" vertex="1" parent="1">
          <mxGeometry x="280" y="85" width="60" height="30" as="geometry" />
        </mxCell>
        <mxCell id="c_KmZCJVx6QwYVXVt4nT-58" value="a[0]" style="text;html=1;align=center;verticalAlign=middle;whiteSpace=wrap;rounded=0;" vertex="1" parent="1">
          <mxGeometry x="280" y="195" width="60" height="30" as="geometry" />
        </mxCell>
        <mxCell id="c_KmZCJVx6QwYVXVt4nT-59" value="a[1]" style="text;html=1;align=center;verticalAlign=middle;whiteSpace=wrap;rounded=0;" vertex="1" parent="1">
          <mxGeometry x="280" y="214" width="60" height="30" as="geometry" />
        </mxCell>
      </root>
    </mxGraphModel>
  </diagram>
</mxfile>
